<svg width="47" height="47" viewBox="0 0 47 47" fill="none" xmlns="http://www.w3.org/2000/svg">
<rect x="0.5" y="0.5" width="46" height="46" rx="23" fill="#D9D9D9"/>
<path d="M15.5 34C15.5 29.5817 19.0817 26 23.5 26C27.9183 26 31.5 29.5817 31.5 34H29.5C29.5 30.6863 26.8137 28 23.5 28C20.1863 28 17.5 30.6863 17.5 34H15.5ZM23.5 25C20.185 25 17.5 22.315 17.5 19C17.5 15.685 20.185 13 23.5 13C26.815 13 29.5 15.685 29.5 19C29.5 22.315 26.815 25 23.5 25ZM23.5 23C25.71 23 27.5 21.21 27.5 19C27.5 16.79 25.71 15 23.5 15C21.29 15 19.5 16.79 19.5 19C19.5 21.21 21.29 23 23.5 23Z" fill="#202020"/>
</svg>
